<svg width="101" height="145" viewBox="0 0 101 145" fill="none" xmlns="http://www.w3.org/2000/svg">
<path d="M11.5587 70.9237C9.3915 68.9286 9.69387 65.4237 12.1708 63.8292L89.5448 14.0201C92.7038 11.9865 96.8165 14.4905 96.4603 18.2305L85.8612 129.513C85.5085 133.216 81.0704 134.916 78.3337 132.397L11.5587 70.9237Z" fill="white" stroke="black" stroke-width="5"/>
<path d="M26.7713 74.12C26.4613 74.12 26.2213 74.035 26.0513 73.865C25.8913 73.685 25.8113 73.44 25.8113 73.13V64.4C25.8113 64.08 25.8963 63.84 26.0663 63.68C26.2363 63.51 26.4763 63.425 26.7863 63.425H30.4013C31.5613 63.425 32.4563 63.715 33.0863 64.295C33.7163 64.875 34.0312 65.685 34.0312 66.725C34.0312 67.765 33.7163 68.58 33.0863 69.17C32.4563 69.75 31.5613 70.04 30.4013 70.04H27.7313V73.13C27.7313 73.44 27.6513 73.685 27.4913 73.865C27.3313 74.035 27.0913 74.12 26.7713 74.12ZM27.7313 68.525H30.1013C30.7813 68.525 31.2963 68.375 31.6463 68.075C31.9963 67.765 32.1713 67.315 32.1713 66.725C32.1713 66.135 31.9963 65.69 31.6463 65.39C31.2963 65.09 30.7813 64.94 30.1013 64.94H27.7313V68.525ZM36.2299 74.12C35.9199 74.12 35.6799 74.04 35.5099 73.88C35.3499 73.71 35.2699 73.47 35.2699 73.16V67.49C35.2699 67.18 35.3499 66.945 35.5099 66.785C35.6699 66.625 35.8949 66.545 36.1849 66.545C36.4749 66.545 36.6999 66.625 36.8599 66.785C37.0199 66.945 37.0999 67.18 37.0999 67.49V68.435H36.9499C37.0899 67.835 37.3649 67.38 37.7749 67.07C38.1849 66.76 38.7299 66.575 39.4099 66.515C39.6199 66.495 39.7849 66.55 39.9049 66.68C40.0349 66.8 40.1099 66.99 40.1299 67.25C40.1499 67.5 40.0899 67.705 39.9499 67.865C39.8199 68.015 39.6199 68.105 39.3499 68.135L39.0199 68.165C38.4099 68.225 37.9499 68.415 37.6399 68.735C37.3299 69.045 37.1749 69.485 37.1749 70.055V73.16C37.1749 73.47 37.0949 73.71 36.9349 73.88C36.7749 74.04 36.5399 74.12 36.2299 74.12ZM44.6418 74.15C43.8118 74.15 43.0968 73.995 42.4968 73.685C41.8968 73.375 41.4318 72.935 41.1018 72.365C40.7818 71.795 40.6218 71.12 40.6218 70.34C40.6218 69.58 40.7768 68.915 41.0868 68.345C41.4068 67.775 41.8418 67.33 42.3918 67.01C42.9518 66.68 43.5868 66.515 44.2968 66.515C44.8168 66.515 45.2818 66.6 45.6918 66.77C46.1118 66.94 46.4668 67.185 46.7568 67.505C47.0568 67.825 47.2818 68.215 47.4318 68.675C47.5918 69.125 47.6718 69.635 47.6718 70.205C47.6718 70.385 47.6068 70.525 47.4768 70.625C47.3568 70.715 47.1818 70.76 46.9518 70.76H42.1368V69.68H46.3518L46.1118 69.905C46.1118 69.445 46.0418 69.06 45.9018 68.75C45.7718 68.44 45.5768 68.205 45.3168 68.045C45.0668 67.875 44.7518 67.79 44.3718 67.79C43.9518 67.79 43.5918 67.89 43.2918 68.09C43.0018 68.28 42.7768 68.555 42.6168 68.915C42.4668 69.265 42.3918 69.685 42.3918 70.175V70.28C42.3918 71.1 42.5818 71.715 42.9618 72.125C43.3518 72.525 43.9218 72.725 44.6718 72.725C44.9318 72.725 45.2218 72.695 45.5418 72.635C45.8718 72.565 46.1818 72.45 46.4718 72.29C46.6818 72.17 46.8668 72.12 47.0268 72.14C47.1868 72.15 47.3118 72.205 47.4018 72.305C47.5018 72.405 47.5618 72.53 47.5818 72.68C47.6018 72.82 47.5718 72.965 47.4918 73.115C47.4218 73.265 47.2968 73.395 47.1168 73.505C46.7668 73.725 46.3618 73.89 45.9018 74C45.4518 74.1 45.0318 74.15 44.6418 74.15ZM50.1166 74.12C49.8166 74.12 49.5866 74.04 49.4266 73.88C49.2666 73.71 49.1866 73.47 49.1866 73.16V67.49C49.1866 67.18 49.2666 66.945 49.4266 66.785C49.5866 66.625 49.8116 66.545 50.1016 66.545C50.3916 66.545 50.6166 66.625 50.7766 66.785C50.9366 66.945 51.0166 67.18 51.0166 67.49V68.585L50.8516 68.135C51.0516 67.635 51.3616 67.24 51.7816 66.95C52.2016 66.66 52.7016 66.515 53.2816 66.515C53.8716 66.515 54.3566 66.655 54.7366 66.935C55.1166 67.215 55.3816 67.645 55.5316 68.225H55.3216C55.5216 67.695 55.8516 67.28 56.3116 66.98C56.7716 66.67 57.3016 66.515 57.9016 66.515C58.4616 66.515 58.9216 66.625 59.2816 66.845C59.6516 67.065 59.9266 67.4 60.1066 67.85C60.2866 68.29 60.3766 68.85 60.3766 69.53V73.16C60.3766 73.47 60.2916 73.71 60.1216 73.88C59.9616 74.04 59.7316 74.12 59.4316 74.12C59.1316 74.12 58.9016 74.04 58.7416 73.88C58.5816 73.71 58.5016 73.47 58.5016 73.16V69.605C58.5016 69.045 58.4066 68.635 58.2166 68.375C58.0366 68.115 57.7266 67.985 57.2866 67.985C56.7966 67.985 56.4116 68.16 56.1316 68.51C55.8516 68.85 55.7116 69.325 55.7116 69.935V73.16C55.7116 73.47 55.6316 73.71 55.4716 73.88C55.3116 74.04 55.0816 74.12 54.7816 74.12C54.4816 74.12 54.2466 74.04 54.0766 73.88C53.9166 73.71 53.8366 73.47 53.8366 73.16V69.605C53.8366 69.045 53.7416 68.635 53.5516 68.375C53.3716 68.115 53.0666 67.985 52.6366 67.985C52.1466 67.985 51.7616 68.16 51.4816 68.51C51.2016 68.85 51.0616 69.325 51.0616 69.935V73.16C51.0616 73.8 50.7466 74.12 50.1166 74.12ZM63.2409 74.105C62.9409 74.105 62.7109 74.015 62.5509 73.835C62.3909 73.655 62.3109 73.405 62.3109 73.085V67.58C62.3109 67.25 62.3909 67 62.5509 66.83C62.7109 66.65 62.9409 66.56 63.2409 66.56C63.5409 66.56 63.7709 66.65 63.9309 66.83C64.1009 67 64.1859 67.25 64.1859 67.58V73.085C64.1859 73.405 64.1059 73.655 63.9459 73.835C63.7859 74.015 63.5509 74.105 63.2409 74.105ZM63.2409 65.165C62.8909 65.165 62.6159 65.08 62.4159 64.91C62.2259 64.73 62.1309 64.485 62.1309 64.175C62.1309 63.855 62.2259 63.61 62.4159 63.44C62.6159 63.27 62.8909 63.185 63.2409 63.185C63.6009 63.185 63.8759 63.27 64.0659 63.44C64.2559 63.61 64.3509 63.855 64.3509 64.175C64.3509 64.485 64.2559 64.73 64.0659 64.91C63.8759 65.08 63.6009 65.165 63.2409 65.165ZM68.7892 74.15C68.1792 74.15 67.6742 74.04 67.2742 73.82C66.8742 73.59 66.5742 73.25 66.3742 72.8C66.1842 72.35 66.0892 71.79 66.0892 71.12V67.49C66.0892 67.17 66.1692 66.935 66.3292 66.785C66.4892 66.625 66.7192 66.545 67.0192 66.545C67.3192 66.545 67.5492 66.625 67.7092 66.785C67.8792 66.935 67.9642 67.17 67.9642 67.49V71.15C67.9642 71.67 68.0692 72.055 68.2792 72.305C68.4892 72.555 68.8242 72.68 69.2842 72.68C69.7842 72.68 70.1942 72.51 70.5142 72.17C70.8342 71.82 70.9942 71.36 70.9942 70.79V67.49C70.9942 67.17 71.0742 66.935 71.2342 66.785C71.3942 66.625 71.6242 66.545 71.9242 66.545C72.2242 66.545 72.4542 66.625 72.6142 66.785C72.7842 66.935 72.8692 67.17 72.8692 67.49V73.16C72.8692 73.8 72.5642 74.12 71.9542 74.12C71.6642 74.12 71.4392 74.04 71.2792 73.88C71.1192 73.71 71.0392 73.47 71.0392 73.16V72.02L71.2492 72.47C71.0392 73.01 70.7192 73.425 70.2892 73.715C69.8692 74.005 69.3692 74.15 68.7892 74.15ZM75.7807 74.12C75.4807 74.12 75.2507 74.04 75.0907 73.88C74.9307 73.71 74.8507 73.47 74.8507 73.16V67.49C74.8507 67.18 74.9307 66.945 75.0907 66.785C75.2507 66.625 75.4757 66.545 75.7657 66.545C76.0557 66.545 76.2807 66.625 76.4407 66.785C76.6007 66.945 76.6807 67.18 76.6807 67.49V68.585L76.5157 68.135C76.7157 67.635 77.0257 67.24 77.4457 66.95C77.8657 66.66 78.3657 66.515 78.9457 66.515C79.5357 66.515 80.0207 66.655 80.4007 66.935C80.7807 67.215 81.0457 67.645 81.1957 68.225H80.9857C81.1857 67.695 81.5157 67.28 81.9757 66.98C82.4357 66.67 82.9657 66.515 83.5657 66.515C84.1257 66.515 84.5857 66.625 84.9457 66.845C85.3157 67.065 85.5907 67.4 85.7707 67.85C85.9507 68.29 86.0407 68.85 86.0407 69.53V73.16C86.0407 73.47 85.9557 73.71 85.7857 73.88C85.6257 74.04 85.3957 74.12 85.0957 74.12C84.7957 74.12 84.5657 74.04 84.4057 73.88C84.2457 73.71 84.1657 73.47 84.1657 73.16V69.605C84.1657 69.045 84.0707 68.635 83.8807 68.375C83.7007 68.115 83.3907 67.985 82.9507 67.985C82.4607 67.985 82.0757 68.16 81.7957 68.51C81.5157 68.85 81.3757 69.325 81.3757 69.935V73.16C81.3757 73.47 81.2957 73.71 81.1357 73.88C80.9757 74.04 80.7457 74.12 80.4457 74.12C80.1457 74.12 79.9107 74.04 79.7407 73.88C79.5807 73.71 79.5007 73.47 79.5007 73.16V69.605C79.5007 69.045 79.4057 68.635 79.2157 68.375C79.0357 68.115 78.7307 67.985 78.3007 67.985C77.8107 67.985 77.4257 68.16 77.1457 68.51C76.8657 68.85 76.7257 69.325 76.7257 69.935V73.16C76.7257 73.8 76.4107 74.12 75.7807 74.12Z" fill="black"/>
</svg>
