<svg width="101" height="145" viewBox="0 0 101 145" fill="none" xmlns="http://www.w3.org/2000/svg">
<path d="M11.5587 71.0231C9.3915 69.0279 9.69387 65.5231 12.1708 63.9286L89.5448 14.1194C92.7038 12.0858 96.8165 14.5899 96.4603 18.3299L85.8612 129.612C85.5085 133.315 81.0704 135.016 78.3337 132.496L11.5587 71.0231Z" fill="white" stroke="black" stroke-width="5"/>
<path d="M26.7424 73.15C26.3024 73.15 25.8624 73.115 25.4224 73.045C24.9824 72.985 24.5674 72.89 24.1774 72.76C23.7874 72.62 23.4374 72.45 23.1274 72.25C22.9474 72.13 22.8224 71.985 22.7524 71.815C22.6824 71.645 22.6574 71.48 22.6774 71.32C22.7074 71.15 22.7724 71.005 22.8724 70.885C22.9824 70.755 23.1174 70.675 23.2774 70.645C23.4374 70.615 23.6124 70.66 23.8024 70.78C24.2424 71.04 24.7074 71.23 25.1974 71.35C25.6874 71.47 26.2024 71.53 26.7424 71.53C27.5324 71.53 28.1074 71.4 28.4674 71.14C28.8274 70.87 29.0074 70.525 29.0074 70.105C29.0074 69.755 28.8774 69.48 28.6174 69.28C28.3674 69.08 27.9324 68.915 27.3124 68.785L25.6624 68.44C24.7124 68.24 24.0024 67.905 23.5324 67.435C23.0724 66.955 22.8424 66.325 22.8424 65.545C22.8424 65.055 22.9424 64.61 23.1424 64.21C23.3424 63.81 23.6224 63.465 23.9824 63.175C24.3524 62.885 24.7874 62.665 25.2874 62.515C25.7974 62.355 26.3574 62.275 26.9674 62.275C27.5674 62.275 28.1374 62.35 28.6774 62.5C29.2174 62.65 29.7024 62.87 30.1324 63.16C30.2924 63.27 30.3974 63.405 30.4474 63.565C30.5074 63.725 30.5224 63.885 30.4924 64.045C30.4624 64.195 30.3924 64.325 30.2824 64.435C30.1724 64.545 30.0324 64.61 29.8624 64.63C29.7024 64.65 29.5174 64.6 29.3074 64.48C28.9374 64.27 28.5624 64.12 28.1824 64.03C27.8024 63.94 27.3924 63.895 26.9524 63.895C26.4924 63.895 26.0974 63.96 25.7674 64.09C25.4374 64.22 25.1824 64.405 25.0024 64.645C24.8324 64.875 24.7474 65.15 24.7474 65.47C24.7474 65.83 24.8674 66.12 25.1074 66.34C25.3474 66.55 25.7574 66.715 26.3374 66.835L27.9724 67.18C28.9624 67.39 29.6974 67.72 30.1774 68.17C30.6674 68.62 30.9124 69.22 30.9124 69.97C30.9124 70.45 30.8124 70.885 30.6124 71.275C30.4224 71.665 30.1424 72 29.7724 72.28C29.4124 72.56 28.9774 72.775 28.4674 72.925C27.9574 73.075 27.3824 73.15 26.7424 73.15ZM33.3103 75.82C33.0103 75.82 32.7803 75.74 32.6203 75.58C32.4603 75.42 32.3803 75.185 32.3803 74.875V66.49C32.3803 66.18 32.4603 65.945 32.6203 65.785C32.7803 65.625 33.0053 65.545 33.2953 65.545C33.5953 65.545 33.8253 65.625 33.9853 65.785C34.1453 65.945 34.2253 66.18 34.2253 66.49V67.66L34.0603 67.21C34.2103 66.7 34.5153 66.29 34.9753 65.98C35.4453 65.67 35.9903 65.515 36.6103 65.515C37.2503 65.515 37.8103 65.67 38.2903 65.98C38.7803 66.29 39.1603 66.73 39.4303 67.3C39.7003 67.86 39.8353 68.535 39.8353 69.325C39.8353 70.105 39.7003 70.785 39.4303 71.365C39.1603 71.935 38.7853 72.375 38.3053 72.685C37.8253 72.995 37.2603 73.15 36.6103 73.15C36.0003 73.15 35.4653 73 35.0053 72.7C34.5453 72.39 34.2353 71.99 34.0753 71.5H34.2553V74.875C34.2553 75.185 34.1703 75.42 34.0003 75.58C33.8403 75.74 33.6103 75.82 33.3103 75.82ZM36.0853 71.725C36.4553 71.725 36.7803 71.635 37.0603 71.455C37.3403 71.275 37.5553 71.01 37.7053 70.66C37.8653 70.3 37.9453 69.855 37.9453 69.325C37.9453 68.525 37.7753 67.93 37.4353 67.54C37.0953 67.14 36.6453 66.94 36.0853 66.94C35.7153 66.94 35.3903 67.03 35.1103 67.21C34.8303 67.38 34.6103 67.645 34.4503 68.005C34.3003 68.355 34.2253 68.795 34.2253 69.325C34.2253 70.115 34.3953 70.715 34.7353 71.125C35.0753 71.525 35.5253 71.725 36.0853 71.725ZM44.9894 73.15C44.1594 73.15 43.4444 72.995 42.8444 72.685C42.2444 72.375 41.7794 71.935 41.4494 71.365C41.1294 70.795 40.9694 70.12 40.9694 69.34C40.9694 68.58 41.1244 67.915 41.4344 67.345C41.7544 66.775 42.1894 66.33 42.7394 66.01C43.2994 65.68 43.9344 65.515 44.6444 65.515C45.1644 65.515 45.6294 65.6 46.0394 65.77C46.4594 65.94 46.8144 66.185 47.1044 66.505C47.4044 66.825 47.6294 67.215 47.7794 67.675C47.9394 68.125 48.0194 68.635 48.0194 69.205C48.0194 69.385 47.9544 69.525 47.8244 69.625C47.7044 69.715 47.5294 69.76 47.2994 69.76H42.4844V68.68H46.6994L46.4594 68.905C46.4594 68.445 46.3894 68.06 46.2494 67.75C46.1194 67.44 45.9244 67.205 45.6644 67.045C45.4144 66.875 45.0994 66.79 44.7194 66.79C44.2994 66.79 43.9394 66.89 43.6394 67.09C43.3494 67.28 43.1244 67.555 42.9644 67.915C42.8144 68.265 42.7394 68.685 42.7394 69.175V69.28C42.7394 70.1 42.9294 70.715 43.3094 71.125C43.6994 71.525 44.2694 71.725 45.0194 71.725C45.2794 71.725 45.5694 71.695 45.8894 71.635C46.2194 71.565 46.5294 71.45 46.8194 71.29C47.0294 71.17 47.2144 71.12 47.3744 71.14C47.5344 71.15 47.6594 71.205 47.7494 71.305C47.8494 71.405 47.9094 71.53 47.9294 71.68C47.9494 71.82 47.9194 71.965 47.8394 72.115C47.7694 72.265 47.6444 72.395 47.4644 72.505C47.1144 72.725 46.7094 72.89 46.2494 73C45.7994 73.1 45.3794 73.15 44.9894 73.15ZM52.8943 73.15C52.1243 73.15 51.4543 72.995 50.8843 72.685C50.3143 72.365 49.8743 71.915 49.5643 71.335C49.2543 70.755 49.0993 70.075 49.0993 69.295C49.0993 68.705 49.1843 68.18 49.3543 67.72C49.5343 67.25 49.7893 66.855 50.1193 66.535C50.4493 66.205 50.8493 65.955 51.3193 65.785C51.7893 65.605 52.3143 65.515 52.8943 65.515C53.2243 65.515 53.5793 65.56 53.9593 65.65C54.3493 65.74 54.7143 65.89 55.0543 66.1C55.2143 66.2 55.3193 66.32 55.3693 66.46C55.4193 66.6 55.4293 66.745 55.3993 66.895C55.3693 67.035 55.3043 67.16 55.2043 67.27C55.1143 67.37 54.9993 67.435 54.8593 67.465C54.7193 67.485 54.5643 67.45 54.3943 67.36C54.1743 67.23 53.9493 67.135 53.7193 67.075C53.4893 67.005 53.2693 66.97 53.0593 66.97C52.7293 66.97 52.4393 67.025 52.1893 67.135C51.9393 67.235 51.7243 67.385 51.5443 67.585C51.3743 67.775 51.2443 68.015 51.1543 68.305C51.0643 68.595 51.0193 68.93 51.0193 69.31C51.0193 70.05 51.1943 70.635 51.5443 71.065C51.9043 71.485 52.4093 71.695 53.0593 71.695C53.2693 71.695 53.4843 71.665 53.7043 71.605C53.9343 71.545 54.1643 71.45 54.3943 71.32C54.5643 71.23 54.7143 71.2 54.8443 71.23C54.9843 71.26 55.0993 71.33 55.1893 71.44C55.2793 71.54 55.3343 71.665 55.3543 71.815C55.3743 71.955 55.3543 72.095 55.2943 72.235C55.2443 72.375 55.1443 72.49 54.9943 72.58C54.6643 72.78 54.3143 72.925 53.9443 73.015C53.5743 73.105 53.2243 73.15 52.8943 73.15ZM57.5095 73.105C57.2095 73.105 56.9795 73.015 56.8195 72.835C56.6595 72.655 56.5795 72.405 56.5795 72.085V66.58C56.5795 66.25 56.6595 66 56.8195 65.83C56.9795 65.65 57.2095 65.56 57.5095 65.56C57.8095 65.56 58.0395 65.65 58.1995 65.83C58.3695 66 58.4545 66.25 58.4545 66.58V72.085C58.4545 72.405 58.3745 72.655 58.2145 72.835C58.0545 73.015 57.8195 73.105 57.5095 73.105ZM57.5095 64.165C57.1595 64.165 56.8845 64.08 56.6845 63.91C56.4945 63.73 56.3995 63.485 56.3995 63.175C56.3995 62.855 56.4945 62.61 56.6845 62.44C56.8845 62.27 57.1595 62.185 57.5095 62.185C57.8695 62.185 58.1445 62.27 58.3345 62.44C58.5245 62.61 58.6195 62.855 58.6195 63.175C58.6195 63.485 58.5245 63.73 58.3345 63.91C58.1445 64.08 57.8695 64.165 57.5095 64.165ZM62.8177 73.15C62.2877 73.15 61.8127 73.05 61.3927 72.85C60.9827 72.64 60.6577 72.36 60.4177 72.01C60.1877 71.66 60.0727 71.265 60.0727 70.825C60.0727 70.285 60.2127 69.86 60.4927 69.55C60.7727 69.23 61.2277 69 61.8577 68.86C62.4877 68.72 63.3327 68.65 64.3927 68.65H65.1427V69.73H64.4077C63.7877 69.73 63.2927 69.76 62.9227 69.82C62.5527 69.88 62.2877 69.985 62.1277 70.135C61.9777 70.275 61.9027 70.475 61.9027 70.735C61.9027 71.065 62.0177 71.335 62.2477 71.545C62.4777 71.755 62.7977 71.86 63.2077 71.86C63.5377 71.86 63.8277 71.785 64.0777 71.635C64.3377 71.475 64.5427 71.26 64.6927 70.99C64.8427 70.72 64.9177 70.41 64.9177 70.06V68.335C64.9177 67.835 64.8077 67.475 64.5877 67.255C64.3677 67.035 63.9977 66.925 63.4777 66.925C63.1877 66.925 62.8727 66.96 62.5327 67.03C62.2027 67.1 61.8527 67.22 61.4827 67.39C61.2927 67.48 61.1227 67.505 60.9727 67.465C60.8327 67.425 60.7227 67.345 60.6427 67.225C60.5627 67.095 60.5227 66.955 60.5227 66.805C60.5227 66.655 60.5627 66.51 60.6427 66.37C60.7227 66.22 60.8577 66.11 61.0477 66.04C61.5077 65.85 61.9477 65.715 62.3677 65.635C62.7977 65.555 63.1877 65.515 63.5377 65.515C64.2577 65.515 64.8477 65.625 65.3077 65.845C65.7777 66.065 66.1277 66.4 66.3577 66.85C66.5877 67.29 66.7027 67.86 66.7027 68.56V72.16C66.7027 72.47 66.6277 72.71 66.4777 72.88C66.3277 73.04 66.1127 73.12 65.8327 73.12C65.5527 73.12 65.3327 73.04 65.1727 72.88C65.0227 72.71 64.9477 72.47 64.9477 72.16V71.44H65.0677C64.9977 71.79 64.8577 72.095 64.6477 72.355C64.4477 72.605 64.1927 72.8 63.8827 72.94C63.5727 73.08 63.2177 73.15 62.8177 73.15ZM71.1109 73.15C70.2809 73.15 69.6559 72.915 69.2359 72.445C68.8159 71.965 68.6059 71.265 68.6059 70.345V63.25C68.6059 62.94 68.6859 62.705 68.8459 62.545C69.0059 62.385 69.2359 62.305 69.5359 62.305C69.8359 62.305 70.0659 62.385 70.2259 62.545C70.3959 62.705 70.4809 62.94 70.4809 63.25V70.255C70.4809 70.715 70.5759 71.055 70.7659 71.275C70.9659 71.495 71.2459 71.605 71.6059 71.605C71.6859 71.605 71.7609 71.605 71.8309 71.605C71.9009 71.595 71.9709 71.585 72.0409 71.575C72.1809 71.555 72.2759 71.595 72.3259 71.695C72.3759 71.785 72.4009 71.975 72.4009 72.265C72.4009 72.515 72.3509 72.71 72.2509 72.85C72.1509 72.99 71.9859 73.075 71.7559 73.105C71.6559 73.115 71.5509 73.125 71.4409 73.135C71.3309 73.145 71.2209 73.15 71.1109 73.15ZM76.5655 73.15C75.9155 73.15 75.3705 73.04 74.9305 72.82C74.5005 72.6 74.1805 72.28 73.9705 71.86C73.7605 71.43 73.6555 70.9 73.6555 70.27V67.075H72.8755C72.6355 67.075 72.4505 67.015 72.3205 66.895C72.1905 66.765 72.1255 66.59 72.1255 66.37C72.1255 66.14 72.1905 65.965 72.3205 65.845C72.4505 65.725 72.6355 65.665 72.8755 65.665H73.6555V64.3C73.6555 63.99 73.7355 63.755 73.8955 63.595C74.0655 63.435 74.3005 63.355 74.6005 63.355C74.9005 63.355 75.1305 63.435 75.2905 63.595C75.4505 63.755 75.5305 63.99 75.5305 64.3V65.665H77.1205C77.3605 65.665 77.5455 65.725 77.6755 65.845C77.8055 65.965 77.8705 66.14 77.8705 66.37C77.8705 66.59 77.8055 66.765 77.6755 66.895C77.5455 67.015 77.3605 67.075 77.1205 67.075H75.5305V70.165C75.5305 70.645 75.6355 71.005 75.8455 71.245C76.0555 71.485 76.3955 71.605 76.8655 71.605C77.0355 71.605 77.1855 71.59 77.3155 71.56C77.4455 71.53 77.5605 71.51 77.6605 71.5C77.7805 71.49 77.8805 71.53 77.9605 71.62C78.0405 71.7 78.0805 71.87 78.0805 72.13C78.0805 72.33 78.0455 72.51 77.9755 72.67C77.9155 72.82 77.8005 72.925 77.6305 72.985C77.5005 73.025 77.3305 73.06 77.1205 73.09C76.9105 73.13 76.7255 73.15 76.5655 73.15ZM80.9395 75.82C80.7195 75.82 80.5395 75.76 80.3995 75.64C80.2595 75.53 80.1745 75.38 80.1445 75.19C80.1245 75 80.1595 74.8 80.2495 74.59L81.2695 72.325V73.105L78.5395 66.79C78.4495 66.57 78.4195 66.365 78.4495 66.175C78.4795 65.985 78.5695 65.835 78.7195 65.725C78.8795 65.605 79.0945 65.545 79.3645 65.545C79.5945 65.545 79.7795 65.6 79.9195 65.71C80.0595 65.81 80.1845 66.005 80.2945 66.295L82.3195 71.35H81.8695L83.9395 66.28C84.0495 66 84.1795 65.81 84.3295 65.71C84.4795 65.6 84.6795 65.545 84.9295 65.545C85.1495 65.545 85.3245 65.605 85.4545 65.725C85.5845 65.835 85.6645 65.985 85.6945 66.175C85.7245 66.355 85.6895 66.555 85.5895 66.775L81.9445 75.1C81.8145 75.38 81.6745 75.57 81.5245 75.67C81.3745 75.77 81.1795 75.82 80.9395 75.82Z" fill="black"/>
</svg>
