<svg width="101" height="145" viewBox="0 0 101 145" fill="none" xmlns="http://www.w3.org/2000/svg">
<path d="M11.5587 71.1227C9.3915 69.1275 9.69387 65.6227 12.1708 64.0282L89.5448 14.219C92.7038 12.1855 96.8165 14.6895 96.4603 18.4295L85.8612 129.712C85.5085 133.415 81.0704 135.115 78.3337 132.596L11.5587 71.1227Z" fill="white" stroke="black" stroke-width="5"/>
<path d="M29.6917 73.12C29.4117 73.12 29.1967 73.04 29.0467 72.88C28.8967 72.72 28.8217 72.5 28.8217 72.22V63.205C28.8217 62.915 28.9017 62.695 29.0617 62.545C29.2217 62.385 29.4417 62.305 29.7217 62.305C29.9717 62.305 30.1667 62.355 30.3067 62.455C30.4567 62.545 30.5917 62.705 30.7117 62.935L34.4167 69.79H33.9367L37.6417 62.935C37.7617 62.705 37.8917 62.545 38.0317 62.455C38.1717 62.355 38.3667 62.305 38.6167 62.305C38.8967 62.305 39.1117 62.385 39.2617 62.545C39.4117 62.695 39.4867 62.915 39.4867 63.205V72.22C39.4867 72.5 39.4117 72.72 39.2617 72.88C39.1217 73.04 38.9067 73.12 38.6167 73.12C38.3367 73.12 38.1217 73.04 37.9717 72.88C37.8217 72.72 37.7467 72.5 37.7467 72.22V65.275H38.0767L34.9267 71.02C34.8267 71.19 34.7217 71.315 34.6117 71.395C34.5017 71.475 34.3517 71.515 34.1617 71.515C33.9717 71.515 33.8167 71.475 33.6967 71.395C33.5767 71.305 33.4717 71.18 33.3817 71.02L30.2017 65.26H30.5617V72.22C30.5617 72.5 30.4867 72.72 30.3367 72.88C30.1967 73.04 29.9817 73.12 29.6917 73.12ZM42.5642 73.105C42.2642 73.105 42.0342 73.015 41.8742 72.835C41.7142 72.655 41.6342 72.405 41.6342 72.085V66.58C41.6342 66.25 41.7142 66 41.8742 65.83C42.0342 65.65 42.2642 65.56 42.5642 65.56C42.8642 65.56 43.0942 65.65 43.2542 65.83C43.4242 66 43.5092 66.25 43.5092 66.58V72.085C43.5092 72.405 43.4292 72.655 43.2692 72.835C43.1092 73.015 42.8742 73.105 42.5642 73.105ZM42.5642 64.165C42.2142 64.165 41.9392 64.08 41.7392 63.91C41.5492 63.73 41.4542 63.485 41.4542 63.175C41.4542 62.855 41.5492 62.61 41.7392 62.44C41.9392 62.27 42.2142 62.185 42.5642 62.185C42.9242 62.185 43.1992 62.27 43.3892 62.44C43.5792 62.61 43.6742 62.855 43.6742 63.175C43.6742 63.485 43.5792 63.73 43.3892 63.91C43.1992 64.08 42.9242 64.165 42.5642 64.165ZM48.8474 73.15C48.0774 73.15 47.4074 72.995 46.8374 72.685C46.2674 72.365 45.8274 71.915 45.5174 71.335C45.2074 70.755 45.0524 70.075 45.0524 69.295C45.0524 68.705 45.1374 68.18 45.3074 67.72C45.4874 67.25 45.7424 66.855 46.0724 66.535C46.4024 66.205 46.8024 65.955 47.2724 65.785C47.7424 65.605 48.2674 65.515 48.8474 65.515C49.1774 65.515 49.5324 65.56 49.9124 65.65C50.3024 65.74 50.6674 65.89 51.0074 66.1C51.1674 66.2 51.2724 66.32 51.3224 66.46C51.3724 66.6 51.3824 66.745 51.3524 66.895C51.3224 67.035 51.2574 67.16 51.1574 67.27C51.0674 67.37 50.9524 67.435 50.8124 67.465C50.6724 67.485 50.5174 67.45 50.3474 67.36C50.1274 67.23 49.9024 67.135 49.6724 67.075C49.4424 67.005 49.2224 66.97 49.0124 66.97C48.6824 66.97 48.3924 67.025 48.1424 67.135C47.8924 67.235 47.6774 67.385 47.4974 67.585C47.3274 67.775 47.1974 68.015 47.1074 68.305C47.0174 68.595 46.9724 68.93 46.9724 69.31C46.9724 70.05 47.1474 70.635 47.4974 71.065C47.8574 71.485 48.3624 71.695 49.0124 71.695C49.2224 71.695 49.4374 71.665 49.6574 71.605C49.8874 71.545 50.1174 71.45 50.3474 71.32C50.5174 71.23 50.6674 71.2 50.7974 71.23C50.9374 71.26 51.0524 71.33 51.1424 71.44C51.2324 71.54 51.2874 71.665 51.3074 71.815C51.3274 71.955 51.3074 72.095 51.2474 72.235C51.1974 72.375 51.0974 72.49 50.9474 72.58C50.6174 72.78 50.2674 72.925 49.8974 73.015C49.5274 73.105 49.1774 73.15 48.8474 73.15ZM53.4926 73.12C53.1826 73.12 52.9426 73.04 52.7726 72.88C52.6126 72.71 52.5326 72.47 52.5326 72.16V66.49C52.5326 66.18 52.6126 65.945 52.7726 65.785C52.9326 65.625 53.1576 65.545 53.4476 65.545C53.7376 65.545 53.9626 65.625 54.1226 65.785C54.2826 65.945 54.3626 66.18 54.3626 66.49V67.435H54.2126C54.3526 66.835 54.6276 66.38 55.0376 66.07C55.4476 65.76 55.9926 65.575 56.6726 65.515C56.8826 65.495 57.0476 65.55 57.1676 65.68C57.2976 65.8 57.3726 65.99 57.3926 66.25C57.4126 66.5 57.3526 66.705 57.2126 66.865C57.0826 67.015 56.8826 67.105 56.6126 67.135L56.2826 67.165C55.6726 67.225 55.2126 67.415 54.9026 67.735C54.5926 68.045 54.4376 68.485 54.4376 69.055V72.16C54.4376 72.47 54.3576 72.71 54.1976 72.88C54.0376 73.04 53.8026 73.12 53.4926 73.12ZM61.6345 73.15C60.8745 73.15 60.2145 72.995 59.6545 72.685C59.0945 72.375 58.6595 71.935 58.3495 71.365C58.0395 70.785 57.8845 70.105 57.8845 69.325C57.8845 68.735 57.9695 68.21 58.1395 67.75C58.3195 67.28 58.5745 66.88 58.9045 66.55C59.2345 66.21 59.6295 65.955 60.0895 65.785C60.5495 65.605 61.0645 65.515 61.6345 65.515C62.3945 65.515 63.0545 65.67 63.6145 65.98C64.1745 66.29 64.6095 66.73 64.9195 67.3C65.2295 67.87 65.3845 68.545 65.3845 69.325C65.3845 69.915 65.2945 70.445 65.1145 70.915C64.9445 71.385 64.6945 71.79 64.3645 72.13C64.0345 72.46 63.6395 72.715 63.1795 72.895C62.7195 73.065 62.2045 73.15 61.6345 73.15ZM61.6345 71.725C62.0045 71.725 62.3295 71.635 62.6095 71.455C62.8895 71.275 63.1045 71.01 63.2545 70.66C63.4145 70.3 63.4945 69.855 63.4945 69.325C63.4945 68.525 63.3245 67.93 62.9845 67.54C62.6445 67.14 62.1945 66.94 61.6345 66.94C61.2645 66.94 60.9395 67.03 60.6595 67.21C60.3795 67.38 60.1595 67.645 59.9995 68.005C59.8495 68.355 59.7745 68.795 59.7745 69.325C59.7745 70.115 59.9445 70.715 60.2845 71.125C60.6245 71.525 61.0745 71.725 61.6345 71.725ZM69.437 73.15C68.607 73.15 67.982 72.915 67.562 72.445C67.142 71.965 66.932 71.265 66.932 70.345V63.25C66.932 62.94 67.012 62.705 67.172 62.545C67.332 62.385 67.562 62.305 67.862 62.305C68.162 62.305 68.392 62.385 68.552 62.545C68.722 62.705 68.807 62.94 68.807 63.25V70.255C68.807 70.715 68.902 71.055 69.092 71.275C69.292 71.495 69.572 71.605 69.932 71.605C70.012 71.605 70.087 71.605 70.157 71.605C70.227 71.595 70.297 71.585 70.367 71.575C70.507 71.555 70.602 71.595 70.652 71.695C70.702 71.785 70.727 71.975 70.727 72.265C70.727 72.515 70.677 72.71 70.577 72.85C70.477 72.99 70.312 73.075 70.082 73.105C69.982 73.115 69.877 73.125 69.767 73.135C69.657 73.145 69.547 73.15 69.437 73.15ZM74.9938 73.15C74.2338 73.15 73.5738 72.995 73.0138 72.685C72.4538 72.375 72.0188 71.935 71.7088 71.365C71.3988 70.785 71.2438 70.105 71.2438 69.325C71.2438 68.735 71.3288 68.21 71.4988 67.75C71.6788 67.28 71.9338 66.88 72.2638 66.55C72.5938 66.21 72.9888 65.955 73.4488 65.785C73.9088 65.605 74.4238 65.515 74.9938 65.515C75.7538 65.515 76.4138 65.67 76.9738 65.98C77.5338 66.29 77.9688 66.73 78.2788 67.3C78.5888 67.87 78.7438 68.545 78.7438 69.325C78.7438 69.915 78.6538 70.445 78.4738 70.915C78.3038 71.385 78.0538 71.79 77.7238 72.13C77.3938 72.46 76.9988 72.715 76.5388 72.895C76.0788 73.065 75.5638 73.15 74.9938 73.15ZM74.9938 71.725C75.3638 71.725 75.6888 71.635 75.9688 71.455C76.2488 71.275 76.4638 71.01 76.6138 70.66C76.7738 70.3 76.8538 69.855 76.8538 69.325C76.8538 68.525 76.6838 67.93 76.3438 67.54C76.0038 67.14 75.5538 66.94 74.9938 66.94C74.6238 66.94 74.2988 67.03 74.0188 67.21C73.7388 67.38 73.5188 67.645 73.3588 68.005C73.2088 68.355 73.1338 68.795 73.1338 69.325C73.1338 70.115 73.3038 70.715 73.6438 71.125C73.9838 71.525 74.4338 71.725 74.9938 71.725ZM83.5782 73.15C82.9282 73.15 82.3832 73.04 81.9432 72.82C81.5132 72.6 81.1932 72.28 80.9832 71.86C80.7732 71.43 80.6682 70.9 80.6682 70.27V67.075H79.8882C79.6482 67.075 79.4632 67.015 79.3332 66.895C79.2032 66.765 79.1382 66.59 79.1382 66.37C79.1382 66.14 79.2032 65.965 79.3332 65.845C79.4632 65.725 79.6482 65.665 79.8882 65.665H80.6682V64.3C80.6682 63.99 80.7482 63.755 80.9082 63.595C81.0782 63.435 81.3132 63.355 81.6132 63.355C81.9132 63.355 82.1432 63.435 82.3032 63.595C82.4632 63.755 82.5432 63.99 82.5432 64.3V65.665H84.1332C84.3732 65.665 84.5582 65.725 84.6882 65.845C84.8182 65.965 84.8832 66.14 84.8832 66.37C84.8832 66.59 84.8182 66.765 84.6882 66.895C84.5582 67.015 84.3732 67.075 84.1332 67.075H82.5432V70.165C82.5432 70.645 82.6482 71.005 82.8582 71.245C83.0682 71.485 83.4082 71.605 83.8782 71.605C84.0482 71.605 84.1982 71.59 84.3282 71.56C84.4582 71.53 84.5732 71.51 84.6732 71.5C84.7932 71.49 84.8932 71.53 84.9732 71.62C85.0532 71.7 85.0932 71.87 85.0932 72.13C85.0932 72.33 85.0582 72.51 84.9882 72.67C84.9282 72.82 84.8132 72.925 84.6432 72.985C84.5132 73.025 84.3432 73.06 84.1332 73.09C83.9232 73.13 83.7382 73.15 83.5782 73.15Z" fill="black"/>
</svg>
